# xmcd
#
# Track frame offsets:
#  150
#  24463
#  43257
#  69905
#  91563
#  110930
#  128946
#  143048
#  163362
#  191080
#  208377
#  229557
#  262423
#
# Disc length: 4153 seconds
#
# Revision: 0
# Processed by: cddbd v1.5.1PL2 Copyright (c) Steve Scherf et al.
# Submitted via: Collectorz.com_Music_Collector 6.11
#
DISCID=c710370d
DTITLE=Wishbone Ash - Bona Fide - Special Limited Edition
DYEAR=2006
DGENRE=Progressive Rock
TTITLE0=Almighty Blues
TTITLE1=Enigma
TTITLE2=Faith, Hope and Love
TTITLE3=Ancient Remedy
TTITLE4=Changing Tracks
TTITLE5=Shoulda, Woulda, Coulda
TTITLE6=Bona Fide
TTITLE7=Difference In Time
TTITLE8=Come Rain, Come Shine
TTITLE9=Peace
TTITLE10=Hard on You (Studio 2005)
TTITLE11=Almighty Blues (Live 06)
TTITLE12=Tales of the Wise (Live 06)
EXTD=
EXTT0=
EXTT1=
EXTT2=
EXTT3=
EXTT4=
EXTT5=
EXTT6=
EXTT7=
EXTT8=
EXTT9=
EXTT10=
EXTT11=
EXTT12=
PLAYORDER=
